<svg id="Calque_1" data-name="Calque 1" xmlns="http://www.w3.org/2000/svg" viewBox="0 0 25 25"><defs><style>.cls-1{fill:#2896d2;}.cls-2{fill:#fff;}</style></defs><title>icon-phonemob</title><g id="noun_555068_cc" data-name="noun 555068 cc"><g id="Vector"><path id="path0_fill" data-name="path0 fill" class="cls-1" d="M12.5,25A12.5,12.5,0,1,1,25,12.5,12.5,12.5,0,0,1,12.5,25Zm2.6-10.94a5.33,5.33,0,0,0-1.55,2,9.17,9.17,0,0,1-4.67-4.59,6.24,6.24,0,0,0,2-1.61,5.07,5.07,0,0,0-2-3.6A3.94,3.94,0,0,0,6.25,9.89a9.09,9.09,0,0,0,8.55,8.86,4.33,4.33,0,0,0,3.94-2.58,5,5,0,0,0-3.62-2.11Z" transform="translate(0 0)"/></g></g><rect class="cls-1" x="5.04" y="5.01" width="14.11" height="14.11"/><path class="cls-2" d="M17.16,2.68H8.56A1.3,1.3,0,0,0,7.26,4V20.66A1.31,1.31,0,0,0,8.56,22h8.6a1.31,1.31,0,0,0,1.3-1.31V4A1.3,1.3,0,0,0,17.16,2.68Zm-5.67.94h2.75a.15.15,0,0,1,.15.15.16.16,0,0,1-.15.16H11.49a.16.16,0,0,1-.16-.16A.16.16,0,0,1,11.49,3.62Zm1.37,17.69a.65.65,0,1,1,.65-.65A.65.65,0,0,1,12.86,21.31Zm4.7-1.75H8.17V4.74h9.39Z" transform="translate(0 0)"/></svg>