<svg id="Calque_1" data-name="Calque 1" xmlns="http://www.w3.org/2000/svg" viewBox="0 0 25 25"><defs><style>.cls-1{fill:#2896d2;}</style></defs><title>icon-address</title><g id="Canvas"><g id="noun_376938_cc" data-name="noun 376938 cc"><g id="Group"><g id="Group-2" data-name="Group"><g id="Group-3" data-name="Group"><g id="Vector"><path id="path0_fill" data-name="path0 fill" class="cls-1" d="M12.5,0a12.5,12.5,0,1,0,8.84,3.66A12.52,12.52,0,0,0,12.5,0Zm0,6a5,5,0,0,1,5,5c0,3.83-3.65,7.35-4.65,8.35l-.35.36-.35-.36c-1-1-4.65-4.53-4.65-8.35A5,5,0,0,1,12.5,6Zm0,1a4,4,0,0,0-4,4c0,2.94,2.79,6,4,7.23,1.21-1.24,4-4.28,4-7.23A4,4,0,0,0,12.5,7Zm0,2a2,2,0,1,1-2,2A2,2,0,0,1,12.5,9Zm0,1a1,1,0,1,0,1,1A1,1,0,0,0,12.5,10Z" transform="translate(0 0)"/></g></g></g></g></g></g></svg>